<?xml version="1.0" encoding="utf-8"?>
<!-- Generator: Adobe Illustrator 25.0.0, SVG Export Plug-In . SVG Version: 6.00 Build 0)  -->
<svg version="1.1" id="Camada_1" xmlns="http://www.w3.org/2000/svg" xmlns:xlink="http://www.w3.org/1999/xlink" x="0px" y="0px"
	 viewBox="0 0 152 64" style="enable-background:new 0 0 152 64;" xml:space="preserve">
<style type="text/css">
	.st0{fill:#D73B3B;}
	.st1{fill:#D73B3B;filter:url(#Adobe_OpacityMaskFilter);}
	.st2{mask:url(#mask0_8_388_1_);}
	.st3{fill:#C53333;}
	.st4{fill:#FFFFFF;}
	.st5{font-family:'MyriadPro-Regular';}
	.st6{font-size:18px;}
</style>
<path class="st0" d="M4,0h144c2.2,0,4,1.8,4,4v56c0,2.2-1.8,4-4,4H4c-2.2,0-4-1.8-4-4V4C0,1.8,1.8,0,4,0z"/>
<defs>
	<filter id="Adobe_OpacityMaskFilter" filterUnits="userSpaceOnUse" x="27" y="2.9" width="208.2" height="136.7">
		<feColorMatrix  type="matrix" values="1 0 0 0 0  0 1 0 0 0  0 0 1 0 0  0 0 0 1 0"/>
	</filter>
</defs>
<mask maskUnits="userSpaceOnUse" x="27" y="2.9" width="208.2" height="136.7" id="mask0_8_388_1_">
	<path class="st1" d="M4,0h144c2.2,0,4,1.8,4,4v56c0,2.2-1.8,4-4,4H4c-2.2,0-4-1.8-4-4V4C0,1.8,1.8,0,4,0z"/>
</mask>
<g class="st2">
	
		<rect x="46.3" y="44.4" transform="matrix(0.9659 -0.2588 0.2588 0.9659 -16.223 38.3602)" class="st3" width="182.5" height="72.8"/>
	<rect x="64.5" y="61.3" transform="matrix(0.9659 -0.2588 0.2588 0.9659 -15.0059 20.5461)" class="st4" width="12" height="12"/>
	<rect x="87.7" y="55.1" transform="matrix(0.9659 -0.2588 0.2588 0.9659 -12.6083 26.3344)" class="st4" width="12" height="12"/>
	<rect x="110.9" y="48.8" transform="matrix(0.9659 -0.2588 0.2588 0.9659 -10.2107 32.1229)" class="st4" width="12" height="12"/>
	<rect x="134.1" y="42.6" transform="matrix(0.9659 -0.2588 0.2588 0.9659 -7.8131 37.9112)" class="st4" width="12" height="12"/>
	<rect x="148.8" y="51.1" transform="matrix(0.9659 -0.2588 0.2588 0.9659 -9.5047 42.0026)" class="st4" width="12" height="12"/>
	<rect x="125.6" y="57.3" transform="matrix(0.9659 -0.2588 0.2588 0.9659 -11.9022 36.2143)" class="st4" width="12" height="12"/>
	<rect x="102.4" y="63.5" transform="matrix(0.9659 -0.2588 0.2588 0.9659 -14.2999 30.4258)" class="st4" width="12" height="12"/>
	<g>
		<text transform="matrix(1 0 0 1 27 39.5996)" class="st5 st6">DCA-Code</text>
	</g>
</g>
</svg>
